<?xml version="1.0" encoding="UTF-8" standalone="no"?>
<svg
   xmlns:dc="http://purl.org/dc/elements/1.1/"
   xmlns:cc="http://creativecommons.org/ns#"
   xmlns:rdf="http://www.w3.org/1999/02/22-rdf-syntax-ns#"
   xmlns:svg="http://www.w3.org/2000/svg"
   xmlns="http://www.w3.org/2000/svg"
   xmlns:sodipodi="http://sodipodi.sourceforge.net/DTD/sodipodi-0.dtd"
   xmlns:inkscape="http://www.inkscape.org/namespaces/inkscape"
   viewBox="0 0 54 60"
   x="0px"
   y="0px"
   version="1.1"
   id="svg22"
   sodipodi:docname="noun_dictionary_2407204.svg"
   width="54"
   height="60"
   inkscape:version="0.92.4 (5da689c313, 2019-01-14)">
  <metadata
     id="metadata28">
    <rdf:RDF>
      <cc:Work
         rdf:about="">
        <dc:format>image/svg+xml</dc:format>
        <dc:type
           rdf:resource="http://purl.org/dc/dcmitype/StillImage" />
      </cc:Work>
    </rdf:RDF>
  </metadata>
  <defs
     id="defs26" />
  <sodipodi:namedview
     pagecolor="#ffffff"
     bordercolor="#666666"
     borderopacity="1"
     objecttolerance="10"
     gridtolerance="10"
     guidetolerance="10"
     inkscape:pageopacity="0"
     inkscape:pageshadow="2"
     inkscape:window-width="956"
     inkscape:window-height="1032"
     id="namedview24"
     showgrid="false"
     inkscape:zoom="4.17193"
     inkscape:cx="16.371248"
     inkscape:cy="-4.1843006"
     inkscape:window-x="960"
     inkscape:window-y="20"
     inkscape:window-maximized="0"
     inkscape:current-layer="svg22" />
  <g
     id="g16"
     transform="translate(-7,-2)">
    <path
       d="M 14.816,4 A 3,3 0 0 0 12,2 H 10 A 3,3 0 0 0 7,5 v 52 a 5.006,5.006 0 0 0 5,5 H 57 V 36 h 4 v -8 h -4 v -2 h 4 v -8 h -4 v -2 h 4 V 8 H 57 V 4 Z M 9,5 a 1,1 0 0 1 1,-1 h 2 a 1,1 0 0 1 1,1 V 44 H 9 Z m 13,55 v -6 h 4 v 6 z m 33,-8 h -9 v 2 h 9 v 2 H 28 v -2 h 9 V 52 H 15 v 2 h 5 v 2 h -6 a 1,1 0 0 1 -1,-1 v -4 a 1,1 0 0 1 1,-1 h 41 z m 0,8 H 28 V 58 H 55 Z M 55,48 H 14 a 3,3 0 0 0 -3,3 v 4 a 3,3 0 0 0 3,3 h 6 v 2 H 12 A 3,3 0 0 1 9,57 V 46 h 46 z m 4,-18 v 4 h -2 v -4 z m 0,-10 v 4 H 57 V 20 Z M 55,44 H 15 V 6 h 40 z m 4,-34 v 4 h -2 v -4 z"
       id="path2"
       inkscape:connector-curvature="0" />
    <rect
       x="39"
       y="52"
       width="2"
       height="2"
       id="rect4" />
    <path
       d="M 17,36 H 53 V 14 H 17 Z M 19,16 H 51 V 34 H 19 Z"
       id="path6"
       inkscape:connector-curvature="0" />
    <path
       d="M 25.219,18 22.03,30.758 23.97,31.242 25.281,26 h 5.438 L 32.03,31.242 33.97,30.758 30.781,18 Z m 0.562,6 1,-4 h 2.438 l 1,4 z"
       id="path8"
       inkscape:connector-curvature="0" />
    <path
       d="m 45,21 h -8 v 2 h 6 v 2 h -6 v 6 h 10 v -2 h -2 z m -2,8 h -4 v -2 h 4 z"
       id="path10"
       inkscape:connector-curvature="0" />
    <polygon
       points="23,8 17,8 17,12 19,12 19,10 23,10 "
       id="polygon12" />
    <rect
       x="51"
       y="8"
       width="2"
       height="2"
       id="rect14" />
  </g>
</svg>
